<?xml version="1.0" standalone="no"?>
<!DOCTYPE svg PUBLIC "-//W3C//DTD SVG 20010904//EN"
 "http://www.w3.org/TR/2001/REC-SVG-20010904/DTD/svg10.dtd">
<svg version="1.0" xmlns="http://www.w3.org/2000/svg"
 width="500.000000pt" height="500.000000pt" viewBox="0 0 500.000000 500.000000"
 preserveAspectRatio="xMidYMid meet">

<g transform="translate(0.000000,500.000000) scale(0.100000,-0.100000)"
fill="#000000" stroke="none">
<path d="M1609 3877 c-25 -7 -66 -25 -91 -40 -28 -16 -217 -204 -494 -491
-404 -418 -453 -473 -489 -542 l-40 -77 0 -651 0 -651 22 -55 c49 -118 158
-216 276 -247 78 -20 1693 -19 1742 1 59 25 83 107 48 167 -36 61 -2 59 -897
59 -667 0 -823 2 -849 14 -42 17 -83 66 -97 114 -6 23 -10 245 -10 607 1 518
2 573 18 607 10 22 170 195 382 414 201 207 399 412 440 455 71 75 77 79 118
79 51 0 18 31 422 -390 512 -533 601 -619 638 -626 38 -7 81 8 112 41 27 29
37 93 19 127 -8 14 -232 251 -497 527 -432 447 -490 504 -545 531 -73 36 -160
46 -228 27z"/>
<path d="M1643 3240 c-66 -10 -130 -47 -180 -104 -66 -75 -73 -113 -73 -392
l0 -244 301 0 300 0 -3 263 c-3 251 -4 264 -26 305 -35 65 -88 119 -145 146
-63 29 -106 36 -174 26z"/>
<path d="M3020 1890 l0 -240 50 0 50 0 0 240 0 240 -50 0 -50 0 0 -240z"/>
<path d="M3210 1890 l0 -240 35 0 c22 0 38 6 41 14 5 12 12 11 47 -5 56 -25
103 -24 157 4 75 37 109 110 96 200 -8 52 -55 114 -102 133 -39 16 -112 18
-148 4 l-26 -10 0 70 0 70 -50 0 -50 0 0 -240z m225 26 c41 -17 55 -42 55 -94
0 -51 -43 -92 -97 -92 -98 0 -128 140 -39 184 38 19 39 19 81 2z"/>
<path d="M4080 1890 l0 -240 40 0 c28 0 40 4 40 15 0 11 8 11 43 -5 53 -25
101 -25 153 -1 62 28 97 80 102 151 9 123 -69 206 -185 198 -32 -2 -66 -8 -75
-12 -16 -7 -18 -1 -18 63 l0 71 -50 0 -50 0 0 -240z m257 8 c62 -57 18 -168
-67 -168 -35 0 -76 27 -90 59 -40 97 79 180 157 109z"/>
<path d="M1750 1880 l0 -230 111 0 c124 0 165 13 200 61 35 50 19 155 -27 173
-14 5 -12 10 10 37 50 59 25 144 -50 175 -21 9 -72 14 -139 14 l-105 0 0 -230z
m193 141 c30 -12 42 -43 27 -71 -9 -17 -21 -20 -70 -20 l-60 0 0 43 c0 24 3
47 7 50 9 10 68 8 96 -2z m5 -182 c36 -12 47 -45 26 -76 -12 -20 -23 -23 -74
-23 l-60 0 0 48 c0 27 3 52 7 55 10 11 66 8 101 -4z"/>
<path d="M2241 1992 c-125 -63 -135 -243 -18 -320 34 -23 52 -27 107 -27 83 0
137 31 169 97 47 98 3 221 -92 257 -43 17 -128 13 -166 -7z m157 -99 c41 -45
28 -128 -25 -152 -75 -34 -153 27 -137 109 15 75 110 100 162 43z"/>
<path d="M2671 1992 c-125 -63 -135 -243 -18 -320 34 -23 52 -27 107 -27 83 0
137 31 169 97 47 98 3 221 -92 257 -43 17 -128 13 -166 -7z m157 -99 c41 -45
28 -128 -25 -152 -75 -34 -153 27 -137 109 15 75 110 100 162 43z"/>
<path d="M3800 1999 c-13 -6 -32 -17 -41 -25 -16 -14 -18 -13 -24 5 -5 16 -15
21 -41 21 l-34 0 0 -175 0 -175 50 0 50 0 0 115 c0 110 1 117 25 140 29 30 68
32 95 5 18 -18 20 -33 20 -140 l0 -120 45 0 45 0 0 138 c0 148 -9 179 -62 208
-27 16 -93 17 -128 3z"/>
</g>
</svg>
